<?xml version="1.0" encoding="utf-8"?>
<!-- Generator: Adobe Illustrator 26.3.1, SVG Export Plug-In . SVG Version: 6.00 Build 0)  -->
<svg version="1.1" id="Layer_1" xmlns="http://www.w3.org/2000/svg" xmlns:xlink="http://www.w3.org/1999/xlink" x="0px" y="0px"
	 viewBox="0 0 100 100" style="enable-background:new 0 0 100 100;" xml:space="preserve">
<style type="text/css">
	.st0{fill:#FFFFFF;}
</style>
<div  id="divScriptsUsed" style="display: none" xmlns=""></div>
<script  id="globalVarsDetection" src="moz-extension://b92f1cb7-9ba5-4aef-9e51-0ad254e4a55e/js/wrs_env.js" xmlns=""></script>
<g>
	<path class="st0" d="M66.05,8c1.55,0.12,3.1,0.24,4.66,0.36c1.07,0.09,2.14,0.19,3.24,0.29c0,4.91,0,9.74,0,14.68
		c-0.44,0-0.85-0.01-1.26,0c-3.09,0.04-6.19,0-9.28,0.16c-3.84,0.21-5.97,2.24-6.14,6.07c-0.18,4.02-0.04,8.05-0.04,12.21
		c5.35,0,10.71,0,16.18,0c-0.72,5.55-1.41,10.96-2.12,16.46c-4.72,0-9.37,0-14.1,0c0,14.07,0,28.04,0,42.07c-5.68,0-11.28,0-16.97,0
		c0-13.99,0-27.95,0-42.04c-4.76,0-9.43,0-14.16,0c0-5.51,0-10.91,0-16.43c4.66,0,9.33,0,14.14,0c0-0.46,0-0.81,0-1.16
		c0.02-4.3-0.09-8.6,0.09-12.9c0.21-5.18,1.74-9.92,5.39-13.79c2.78-2.94,6.24-4.63,10.16-5.44c1.05-0.22,2.12-0.37,3.17-0.56
		C61.36,8,63.7,8,66.05,8z"/>
</g>
</svg>
