<?xml version="1.0" encoding="utf-8"?>
<!-- Generator: Adobe Illustrator 26.3.1, SVG Export Plug-In . SVG Version: 6.00 Build 0)  -->
<svg version="1.1" id="Capa_1" xmlns="http://www.w3.org/2000/svg" xmlns:xlink="http://www.w3.org/1999/xlink" x="0px" y="0px"
	 viewBox="0 0 612 262" style="enable-background:new 0 0 612 262;" xml:space="preserve">
<style type="text/css">
	.st0{fill:#FFFFFF;}
</style>
<g>
	<path class="st0" d="M48.97,49.03c8.67,0,16.86-0.2,25.03,0.17c1.61,0.07,3.86,2.03,4.56,3.66c10.07,23.29,19.92,46.66,29.84,70.02
		c0.56,1.33,1.21,2.62,2.71,3.64c0-25.54,0-51.09,0-77.06c10.92,0,21.46,0,32.47,0c0,54.46,0,109.13,0,164.43
		c-8.6,0-17.11,0.15-25.59-0.17c-1.24-0.05-2.87-2.17-3.53-3.68c-10.47-23.86-20.82-47.77-31.2-71.67c-0.34-0.79-0.73-1.56-1.9-2.32
		c0,25.73,0,51.47,0,77.49c-11.11,0-21.52,0-32.38,0C48.97,158.92,48.97,104.25,48.97,49.03z"/>
	<path class="st0" d="M322.89,49.31c10.89,0,21.46,0,32.39,0c0,22.74,0,45.21,0,67.67c0.33,0.11,0.66,0.23,0.99,0.34
		c1.11-2.32,2.29-4.61,3.32-6.96c8.45-19.26,16.81-38.56,25.43-57.75c0.71-1.59,3.1-3.38,4.76-3.43c9.58-0.33,19.17-0.16,29.65-0.16
		c-3.56,7.47-6.87,14.45-10.21,21.42c-6.75,14.11-13.39,28.29-20.37,42.29c-1.72,3.44-1.82,6.28-0.42,9.78
		c11.62,29.02,23.1,58.1,34.62,87.17c0.44,1.11,0.83,2.24,1.52,4.13c-11.41,0-22.32,0.12-33.21-0.17c-1.18-0.03-2.76-2.24-3.37-3.76
		c-7.03-17.58-13.91-35.21-20.84-52.84c-0.25-0.62-0.53-1.23-1.42-3.3c-3.53,10.59-10.87,18.19-10.36,29.18
		c0.47,10.06,0.1,20.17,0.1,30.58c-11.04,0-21.6,0-32.61,0C322.89,158.74,322.89,104.08,322.89,49.31z"/>
	<path class="st0" d="M465.47,159.98c10.46,0,20.7,0,31.21,0c0.41,3.55,0.57,7,1.25,10.33c1.44,6.99,5.77,11.38,12.81,12.79
		c6.85,1.37,13.53-1.48,17.05-7.43c3.64-6.14,3.79-12.87-0.99-17.99c-4-4.28-9.34-7.8-14.74-10.15
		c-10.2-4.43-20.58-8.28-29.35-15.47c-16.55-13.58-22.4-36.91-13.88-56.22c8.82-19.97,30.27-32.69,49.94-29.61
		c24.08,3.78,40.87,20.36,43.23,42.78c0.44,4.14,0.63,8.31,1.02,13.49c-5.79,0-11.09,0-16.4,0c-5.2,0-10.41,0-15.84,0
		c-0.39-3.6-0.51-6.87-1.13-10.05c-1.54-7.8-7.31-13.02-14.95-13.83c-6.27-0.67-13.13,3.51-15.95,9.72
		c-3.01,6.63-1.58,14.59,4.6,19.31c4.61,3.53,10.14,5.88,15.31,8.65c9,4.81,18.95,8.39,26.9,14.55
		c16.35,12.69,20.28,30.61,14.99,49.83c-5.16,18.75-18.15,30.92-37.43,34.6C489.86,221.65,461.31,194.28,465.47,159.98z"/>
	<path class="st0" d="M276.4,149.9c10.56,0,20.96,0,31.35,0c3.63,24.64-1.77,50.58-23.97,61.13c-23.92,11.36-60.72,4.96-67.38-35.35
		c-4.2-25.43-2.8-51.16-1.34-76.76c0.46-8.05,2.05-16.37,4.89-23.89c7.74-20.48,26.01-29.93,50.37-27.2
		c18.83,2.12,33.96,17.25,36.93,37.84c1.28,8.88,1.2,17.95,1.75,27.28c-11.58,0-22.12,0-32.93,0c-0.38-7.97-0.46-15.77-1.21-23.51
		c-0.84-8.65-5.77-12.74-13.81-12.28c-5.87,0.34-10.08,3.64-11.11,10.55c-1.51,10.14-2.99,20.43-2.85,30.63
		c0.25,18.78,1.25,37.58,2.81,56.3c0.67,8.01,5.65,11.5,12.47,11.42c7.06-0.09,11.49-3.93,12.5-12.1
		C275.84,166.21,275.9,158.35,276.4,149.9z"/>
	<path class="st0" d="M195.96,165.22c-10.66,0-21.19,0-31.98,0c0-38.77,0-77.23,0-115.94c10.71,0,21.12,0,31.98,0
		C195.96,87.83,195.96,126.42,195.96,165.22z"/>
	<path class="st0" d="M441.83,48.61c10.53-0.1,19.02,8.11,19.21,18.59c0.18,10.07-8.5,18.94-18.79,19.19
		c-10.14,0.25-18.8-8.34-18.93-18.78C423.19,56.86,431.12,48.71,441.83,48.61z"/>
	<path class="st0" d="M179.81,215.7c-10.32-0.02-19-8.82-18.79-19.05c0.21-10.3,8.99-18.88,19.19-18.74
		c10.37,0.14,18.7,8.7,18.63,19.15C198.77,207.5,190.38,215.72,179.81,215.7z"/>
</g>
</svg>
