<?xml version="1.0" encoding="utf-8"?>
<!-- Generator: Adobe Illustrator 26.3.1, SVG Export Plug-In . SVG Version: 6.00 Build 0)  -->
<svg version="1.1" id="Layer_1" xmlns="http://www.w3.org/2000/svg" xmlns:xlink="http://www.w3.org/1999/xlink" x="0px" y="0px"
	 viewBox="0 0 25 76.8" style="enable-background:new 0 0 25 76.8;" xml:space="preserve">
<style type="text/css">
	.st0{fill:#FFFFFF;}
</style>
<div  id="divScriptsUsed" style="display: none" xmlns=""></div>
<script  id="globalVarsDetection" src="moz-extension://b92f1cb7-9ba5-4aef-9e51-0ad254e4a55e/js/wrs_env.js" xmlns=""></script>
<g>
	<path class="st0" d="M23.99,2.38c0,1.21,0.03,2.36-0.02,3.51c-0.01,0.23-0.28,0.54-0.51,0.64c-3.26,1.41-6.54,2.79-9.81,4.18
		c-0.19,0.08-0.37,0.17-0.51,0.38c3.58,0,7.16,0,10.8,0c0,1.53,0,3.01,0,4.55c-7.63,0-15.29,0-23.04,0c0-1.21-0.02-2.4,0.02-3.59
		c0.01-0.17,0.3-0.4,0.52-0.49c3.34-1.47,6.69-2.92,10.04-4.37c0.11-0.05,0.22-0.1,0.33-0.27c-3.61,0-7.21,0-10.86,0
		c0-1.56,0-3.02,0-4.54C8.59,2.38,16.25,2.38,23.99,2.38z"/>
	<path class="st0" d="M23.95,40.77c0,1.53,0,3.01,0,4.54c-3.19,0-6.33,0-9.48,0c-0.02,0.05-0.03,0.09-0.05,0.14
		c0.32,0.16,0.65,0.32,0.98,0.47c2.7,1.18,5.4,2.36,8.09,3.56c0.22,0.1,0.47,0.43,0.48,0.67c0.05,1.34,0.02,2.69,0.02,4.15
		c-1.05-0.5-2.02-0.96-3-1.43c-1.98-0.95-3.96-1.88-5.93-2.85c-0.48-0.24-0.88-0.26-1.37-0.06c-4.07,1.63-8.14,3.24-12.21,4.85
		c-0.16,0.06-0.31,0.12-0.58,0.21c0-1.6-0.02-3.13,0.02-4.65c0-0.17,0.31-0.39,0.53-0.47c2.46-0.99,4.93-1.95,7.4-2.92
		c0.09-0.03,0.17-0.07,0.46-0.2c-1.48-0.49-2.55-1.52-4.09-1.45c-1.41,0.07-2.83,0.01-4.29,0.01c0-1.55,0-3.03,0-4.57
		C8.61,40.77,16.27,40.77,23.95,40.77z"/>
	<path class="st0" d="M8.44,60.75c0,1.47,0,2.9,0,4.37c-0.5,0.06-0.98,0.08-1.45,0.18C6.01,65.5,5.4,66.1,5.2,67.09
		c-0.19,0.96,0.21,1.9,1.04,2.39c0.86,0.51,1.8,0.53,2.52-0.14c0.6-0.56,1.09-1.31,1.42-2.07c0.62-1.43,1.16-2.88,2.17-4.11
		c1.9-2.32,5.17-3.14,7.88-1.94c2.8,1.24,4.58,4.24,4.15,7c-0.53,3.37-2.85,5.73-5.99,6.06c-0.58,0.06-1.16,0.09-1.89,0.14
		c0-0.81,0-1.55,0-2.3c0-0.73,0-1.46,0-2.22c0.5-0.05,0.96-0.07,1.41-0.16c1.09-0.22,1.82-1.02,1.94-2.09
		c0.09-0.88-0.49-1.84-1.36-2.23c-0.93-0.42-2.04-0.22-2.71,0.64c-0.49,0.65-0.82,1.42-1.21,2.15c-0.67,1.26-1.18,2.66-2.04,3.77
		c-1.78,2.29-4.29,2.84-6.98,2.1c-2.63-0.72-4.33-2.54-4.85-5.24C-0.2,64.16,3.63,60.16,8.44,60.75z"/>
	<path class="st0" d="M9.85,34.25c0,1.48,0,2.94,0,4.39c-3.45,0.51-7.09-0.25-8.57-3.36c-1.59-3.35-0.69-8.51,4.95-9.44
		c3.56-0.59,7.17-0.39,10.76-0.19c1.13,0.06,2.29,0.29,3.35,0.69c2.87,1.08,4.19,3.65,3.81,7.06c-0.3,2.64-2.42,4.76-5.3,5.17
		c-1.24,0.18-2.52,0.17-3.82,0.25c0-1.62,0-3.1,0-4.61c1.12-0.05,2.21-0.06,3.29-0.17c1.21-0.12,1.79-0.81,1.72-1.93
		c-0.05-0.82-0.51-1.41-1.48-1.56c-1.42-0.21-2.86-0.42-4.29-0.4c-2.63,0.03-5.27,0.17-7.89,0.39c-1.12,0.09-1.61,0.79-1.6,1.75
		c0.01,0.99,0.55,1.61,1.7,1.75C7.57,34.17,8.67,34.18,9.85,34.25z"/>
	<path class="st0" d="M7.7,22.98c0-1.49,0-2.97,0-4.48c5.43,0,10.82,0,16.25,0c0,1.5,0,2.96,0,4.48
		C18.55,22.98,13.14,22.98,7.7,22.98z"/>
	<path class="st0" d="M24.05,57.43c0.01,1.48-1.14,2.67-2.61,2.69c-1.41,0.03-2.65-1.19-2.69-2.63c-0.04-1.42,1.17-2.63,2.63-2.65
		C22.89,54.82,24.03,55.93,24.05,57.43z"/>
	<path class="st0" d="M0.63,20.72c0-1.45,1.24-2.66,2.67-2.63c1.44,0.03,2.64,1.26,2.63,2.69c-0.02,1.45-1.22,2.62-2.68,2.61
		C1.78,23.37,0.63,22.2,0.63,20.72z"/>
</g>
</svg>
