<?xml version="1.0" encoding="utf-8"?>
<!-- Generator: Adobe Illustrator 26.3.1, SVG Export Plug-In . SVG Version: 6.00 Build 0)  -->
<svg version="1.1" id="Layer_1" xmlns="http://www.w3.org/2000/svg" xmlns:xlink="http://www.w3.org/1999/xlink" x="0px" y="0px"
	 viewBox="0 0 100 100" style="enable-background:new 0 0 100 100;" xml:space="preserve">
<div  id="divScriptsUsed" style="display: none" xmlns=""></div>
<script  id="globalVarsDetection" src="moz-extension://b92f1cb7-9ba5-4aef-9e51-0ad254e4a55e/js/wrs_env.js" xmlns=""></script>
<g>
	<path d="M51.89,5.74c1.43,0.17,2.86,0.31,4.28,0.5c5.13,0.7,9.97,2.31,14.52,4.77c6.92,3.73,12.46,8.95,16.65,15.6
		c1.91,3.03,3.42,6.24,4.54,9.77c-2.35,0-4.62,0.02-6.88-0.03c-0.2,0-0.44-0.38-0.57-0.63c-0.95-1.81-1.89-3.62-2.8-5.44
		c-0.29-0.57-0.64-0.74-1.33-0.71c-2.01,0.1-4.03,0.03-6.15,0.03c0.55,2.25,1.07,4.44,1.63,6.72c-2.37,0-4.65,0-6.97,0
		c-0.56-1.93-1.15-3.88-1.67-5.84c-0.18-0.66-0.45-0.9-1.17-0.89c-10.75,0.03-21.5,0.03-32.25,0c-0.72,0-1.01,0.21-1.18,0.89
		c-0.52,1.95-1.1,3.87-1.67,5.87c-2.24,0-4.53,0-6.96,0c0.54-2.25,1.07-4.45,1.62-6.74c-1.85,0-3.68,0.15-5.46-0.05
		c-1.36-0.16-1.97,0.4-2.48,1.46c-0.77,1.61-1.57,3.2-2.38,4.79c-0.12,0.24-0.4,0.55-0.62,0.56c-2.24,0.04-4.48,0.03-6.97,0.03
		c1.01-2.31,1.83-4.52,2.91-6.6c4.26-8.21,10.5-14.52,18.66-18.88c4.84-2.59,10.01-4.21,15.49-4.81c1.03-0.11,2.05-0.23,3.08-0.34
		C49.12,5.74,50.51,5.74,51.89,5.74z M63.45,22.7c0-0.12,0.02-0.19,0-0.23c-1.97-3.31-4.34-6.26-7.73-8.22
		c-3.4-1.97-6.93-2.29-10.58-0.61c-2.58,1.18-4.63,3-6.38,5.18c-0.96,1.2-1.8,2.49-2.8,3.89C45.28,22.7,54.36,22.7,63.45,22.7z
		 M68.93,17.69c-0.06,0.07-0.11,0.13-0.17,0.2c0.81,1.48,1.61,2.97,2.44,4.45c0.1,0.18,0.31,0.4,0.48,0.4
		c1.16,0.04,2.32,0.02,3.48,0.02c0.04-0.1,0.09-0.2,0.13-0.31C73.18,20.86,71.05,19.28,68.93,17.69z M24.35,22.45
		c0.05,0.1,0.11,0.21,0.16,0.31c1.12,0,2.24,0.01,3.36-0.01c0.17,0,0.41-0.12,0.49-0.26c0.86-1.53,1.68-3.08,2.52-4.62
		c-0.06-0.06-0.11-0.12-0.17-0.18C28.59,19.28,26.47,20.86,24.35,22.45z"/>
	<path d="M68.8,63.7c2.27,0,4.57,0,6.96,0c-0.55,2.26-1.08,4.46-1.63,6.74c1.94,0,3.82-0.13,5.67,0.05
		c1.18,0.11,1.71-0.34,2.16-1.26c0.8-1.65,1.63-3.3,2.48-4.93c0.14-0.26,0.44-0.61,0.67-0.61c2.22-0.05,4.43-0.03,6.66-0.03
		C88,76.97,74.36,92.29,53.75,94.09C31.58,96.03,13.46,81.63,7.8,63.65c1.29,0,2.54-0.01,3.79,0c1.09,0.01,2.4-0.34,3.22,0.15
		c0.76,0.45,0.96,1.81,1.45,2.74c0.63,1.19,1.31,2.37,1.99,3.53c0.11,0.19,0.36,0.43,0.55,0.43c2.19,0,4.37-0.05,6.56-0.09
		c0.03,0,0.05-0.02,0.14-0.07c-0.53-2.18-1.06-4.37-1.61-6.64c2.4,0,4.69,0,6.96,0c0.57,1.97,1.15,3.93,1.68,5.89
		c0.17,0.62,0.43,0.85,1.12,0.85c10.78-0.03,21.56-0.03,32.33,0c0.67,0,0.96-0.22,1.12-0.84C67.64,67.65,68.23,65.7,68.8,63.7z
		 M36.04,77.31c2.12,3.53,4.53,6.56,8.01,8.53c3.42,1.94,6.97,2.22,10.58,0.49c3.98-1.91,6.64-5.14,8.84-8.84
		c0.02-0.03-0.03-0.1-0.06-0.18C54.34,77.31,45.28,77.31,36.04,77.31z M68.77,82.14c0.05,0.07,0.1,0.13,0.15,0.2
		c2.13-1.59,4.26-3.18,6.38-4.77c-0.05-0.1-0.09-0.2-0.14-0.3c-1.16,0-2.33-0.01-3.49,0.02c-0.15,0-0.35,0.19-0.43,0.34
		C70.4,79.13,69.59,80.64,68.77,82.14z M30.73,82.34c0.05-0.07,0.1-0.13,0.15-0.2c-0.82-1.5-1.63-3.01-2.46-4.51
		c-0.08-0.14-0.23-0.33-0.35-0.33c-1.21-0.02-2.41-0.01-3.62-0.01c-0.03,0.1-0.06,0.2-0.1,0.3C26.48,79.18,28.6,80.76,30.73,82.34z"
		/>
	<path d="M13.87,51.47c1.14-2.63,2.23-5.07,3.26-7.54c0.32-0.76,0.78-1.13,1.63-1.11c3.35,0.06,2.68-0.34,3.93,2.56
		c0.83,1.93,1.64,3.87,2.53,5.96c0.16-0.4,0.28-0.67,0.39-0.95c0.86-2.2,1.73-4.39,2.55-6.6c0.25-0.67,0.65-0.97,1.34-0.97
		c0.89,0.01,1.79-0.03,2.68,0.01c0.99,0.04,1.31,0.53,0.91,1.43c-1.79,4.09-3.6,8.16-5.39,12.25c-0.26,0.58-0.67,0.82-1.28,0.81
		c-0.75-0.01-1.5-0.03-2.25,0.01c-0.73,0.03-1.17-0.28-1.45-0.96c-0.93-2.2-1.89-4.39-2.84-6.58c-0.1-0.23-0.22-0.46-0.37-0.78
		c-1.11,2.4-2.22,4.69-3.22,7.03c-0.42,0.98-1,1.32-2.04,1.29c-3.31-0.09-2.58,0.36-3.82-2.57c-1.45-3.42-2.83-6.86-4.24-10.3
		c-0.5-1.22-0.22-1.63,1.11-1.65c0.81-0.01,1.61,0.01,2.42-0.01c0.76-0.01,1.21,0.29,1.46,1.05C12.03,46.35,12.92,48.81,13.87,51.47
		z"/>
	<path d="M44.26,51.44c0.39-0.88,0.7-1.61,1.02-2.33c0.77-1.77,1.55-3.53,2.3-5.3c0.26-0.63,0.65-0.98,1.36-0.97
		c3.68,0.03,2.84-0.39,4.16,2.6c0.84,1.92,1.63,3.86,2.51,5.94c0.52-1.34,0.99-2.54,1.46-3.75c0.51-1.31,0.98-2.65,1.56-3.93
		c0.17-0.36,0.66-0.77,1.04-0.81c0.99-0.11,2.01-0.08,3.02-0.03c0.87,0.04,1.17,0.54,0.81,1.36c-1.79,4.11-3.61,8.21-5.41,12.32
		c-0.24,0.54-0.62,0.8-1.21,0.79c-0.78-0.01-1.56-0.02-2.33,0.01c-0.73,0.03-1.16-0.29-1.45-0.96c-1.03-2.43-2.1-4.85-3.21-7.39
		c-0.18,0.4-0.31,0.7-0.44,1c-0.99,2.17-2,4.33-2.98,6.51c-0.27,0.61-0.7,0.86-1.35,0.84c-0.75-0.02-1.5-0.02-2.25,0
		c-0.69,0.02-1.12-0.25-1.39-0.91c-1.65-4.05-3.33-8.08-4.98-12.13c-0.39-0.96-0.08-1.41,0.97-1.45c0.92-0.03,1.84-0.01,2.77-0.01
		c0.69,0,1.08,0.32,1.31,1c0.76,2.23,1.57,4.45,2.36,6.67C44,50.76,44.1,51.02,44.26,51.44z"/>
	<path d="M74.63,51.46c1.04-2.39,2.11-4.62,2.99-6.93c0.5-1.32,1.22-1.79,2.63-1.73c2.44,0.1,2.1-0.01,2.95,1.97
		c0.91,2.14,1.81,4.28,2.79,6.6c0.66-1.71,1.26-3.24,1.86-4.77c0.38-0.97,0.76-1.93,1.11-2.9c0.2-0.56,0.57-0.85,1.15-0.86
		c0.98-0.01,1.96-0.04,2.94,0.01c0.89,0.04,1.2,0.54,0.84,1.34c-1.8,4.11-3.62,8.22-5.42,12.33c-0.26,0.58-0.67,0.82-1.28,0.81
		c-0.75-0.01-1.5-0.02-2.25,0c-0.73,0.03-1.16-0.28-1.45-0.96c-1.02-2.41-2.09-4.8-3.2-7.33c-0.15,0.28-0.27,0.48-0.37,0.69
		c-1.01,2.2-2.02,4.39-3,6.6c-0.31,0.7-0.76,1.01-1.53,1c-3.79-0.08-2.9,0.51-4.32-2.85c-1.39-3.29-2.73-6.59-4.09-9.89
		c-0.55-1.34-0.29-1.75,1.15-1.76c0.75-0.01,1.5,0.02,2.25-0.01c0.82-0.03,1.31,0.28,1.59,1.12C72.8,46.43,73.71,48.88,74.63,51.46z
		"/>
</g>
</svg>
